PathFileType	4	(X/Y/Z)	F:\MotionCapture\20160217\3\Generated_files\EMG_Fprce_test05-Dynamic.trc
DataRate	CameraRate	NumFrames	NumMarkers	Units	OrigDataRate	OrigDataStartFrame	OrigNumFrames
120.00	120.00	       4	39	mm	120.00	118	       188
Frame#	Time	Top.Head			Front.Head			Rear.Head			R.Shoulder			R.Offset			R.Elbow			R.Wrist			L.Shoulder			L.Elbow			L.Wrist			R.ASIS			L.ASIS			V.Sacral			R.Thigh			R.Knee			R.Shank			R.Ankle			R.Heel			R.Toe			L.Thigh			L.Knee			L.Shank			L.Ankle			L.Heel			L.Toe			R1			R2			R3			R4			R5			R6			R7			L1			L2			L3			L4			L5			L6			L7			V_Mid_ASIS			V_Pelvis_Origin			V_R.Hip_JC			V_L.Hip_JC			V_R.Knee_JC			V_L.Knee_JC			V_R.Ankle_JC			V_L.Ankle_JC			V_Mid_Hip			V_Mid_Shoulder			V_R.Hand			V_L.Hand			V_R.Toe_Offset_Static			V_L.Toe_Offset_Static			V_R.Toe_Offset			V_L.Toe_Offset			
		X1	Y1	Z1	X2	Y2	Z2	X3	Y3	Z3	X4	Y4	Z4	X5	Y5	Z5	X6	Y6	Z6	X7	Y7	Z7	X8	Y8	Z8	X9	Y9	Z9	X10	Y10	Z10	X11	Y11	Z11	X12	Y12	Z12	X13	Y13	Z13	X14	Y14	Z14	X15	Y15	Z15	X16	Y16	Z16	X17	Y17	Z17	X18	Y18	Z18	X19	Y19	Z19	X20	Y20	Z20	X21	Y21	Z21	X22	Y22	Z22	X23	Y23	Z23	X24	Y24	Z24	X25	Y25	Z25	X26	Y26	Z26	X27	Y27	Z27	X28	Y28	Z28	X29	Y29	Z29	X30	Y30	Z30	X31	Y31	Z31	X32	Y32	Z32	X33	Y33	Z33	X34	Y34	Z34	X35	Y35	Z35	X36	Y36	Z36	X37	Y37	Z37	X38	Y38	Z38	X39	Y39	Z39	

118	0.975	2149.73901	28.01056	1658.16113	2047.21753	13.40125	1562.33936	2264.76147	39.13467	1602.21912	2230.49512	235.03812	1369.67004	2386.34131	-21.09370	1228.16846	2373.50952	357.90131	1101.58618	2399.66187	430.62280	851.43860	2224.39380	-169.71350	1356.68579	2179.11475	-239.46611	1025.21387	1969.15918	-167.99437	891.06708	2177.67407	174.22293	892.83063	2218.41064	-111.63862	880.63373	2419.09351	68.73474	887.01215	2006.87195	133.41039	607.88489	2004.02747	182.33241	484.62021	1937.53784	113.78926	258.65259	1937.14111	189.51955	87.15951	2004.63220	137.74799	62.36880	1790.98328	141.57658	45.98242	2227.63599	-76.54139	548.05469	2369.81323	-107.66767	407.50620	2422.60938	-26.41949	276.18027	2634.25952	-56.11588	90.81747	2694.00977	8.63804	93.21565	2505.92847	-71.04301	46.01363	1745.42236	103.10040	36.54162	1794.12292	103.42465	52.69230	1893.11499	90.75996	75.24033	1964.03015	100.96635	64.46349	1968.21399	176.51711	59.43155	1887.34253	188.77820	44.78710	1819.71777	194.77711	37.24850	2458.63623	-49.15489	39.71108	2490.17554	-34.32878	49.86663	2571.25488	18.45011	65.55872	2650.50830	32.87537	81.36352	2675.73706	-35.50898	84.33956	2611.50781	-75.63375	50.00856	2551.31396	-96.46458	43.45110	
119	0.983	2159.51514	27.39773	1658.47131	2056.95703	11.91493	1563.00818	2274.29321	36.65776	1602.23096	2240.53931	233.22346	1370.30811	2395.05957	-23.35319	1228.22461	2383.06201	355.29492	1102.06445	2409.70557	427.70322	851.90265	2233.16553	-172.12602	1356.71606	2184.90918	-239.71678	1025.77722	1974.77234	-168.07797	891.98926	2185.63647	172.63542	893.31488	2225.84229	-111.81601	881.01886	2426.97095	67.59127	886.45856	2016.07922	132.73326	607.90222	2013.13416	182.95273	484.92908	1941.27759	114.68250	260.51450	1936.83105	190.17287	89.49273	2003.62329	138.21967	64.76144	1790.69128	141.98755	46.29622	2231.98218	-76.71165	548.91144	2373.08472	-107.64751	407.00116	2424.94092	-27.31361	274.47598	2635.34912	-55.66385	88.65726	2694.66040	10.20840	89.87199	2506.14600	-70.92381	45.91229	1745.57251	103.14532	36.70655	1793.77295	104.02143	53.30753	1892.53491	91.58773	77.99130	1963.04504	102.40476	66.98625	1966.47510	175.85608	60.22894	1886.65588	189.50531	45.64188	1819.77869	194.43886	37.11530	2458.61694	-49.23571	39.74401	2490.36743	-34.32837	49.86835	2572.23315	19.29807	64.09941	2651.44751	34.19742	79.16089	2676.78564	-34.39619	81.58863	2612.48242	-74.97650	49.07758	2552.06104	-96.29579	43.22192																																																	2501.91357	1.79797	84.05989	
120	0.992	2169.16626	24.93228	1658.87268	2066.05981	11.70570	1563.68982	2283.89014	34.07172	1602.34314	2249.67065	230.84421	1371.18347	2403.91675	-25.44768	1228.34351	2392.85815	352.94049	1102.55334	2418.54028	425.22455	852.58746	2242.07520	-173.85690	1356.59009	2191.36719	-240.15790	1025.25635	1981.48315	-168.09583	893.00574	2193.29102	171.26720	894.47516	2234.36035	-114.11838	882.86145	2435.03247	66.48290	886.28491	2024.69043	132.03947	607.62201	2021.59741	182.93413	485.40369	1944.21021	116.33231	262.87643	1936.27747	190.91081	91.33016	2002.84436	138.92038	68.02848	1790.41833	142.29941	46.48859	2236.84888	-76.78883	550.51324	2376.01196	-107.81474	406.46719	2426.77661	-26.47055	273.93301	2636.07544	-54.61977	86.61673	2695.42676	11.03452	86.98639	2506.29126	-70.82600	45.83009	1745.71838	103.23818	36.84902	1793.19250	105.02718	54.33863	1892.56262	93.32825	80.86010	1961.99841	103.35076	70.36656	1967.40161	177.90417	63.70666	1885.44568	190.27205	46.26360	1819.40588	194.07463	37.14183	2458.65747	-49.34019	39.76363	2490.51025	-34.28465	49.81232	2572.49805	19.60839	62.88685	2651.89819	34.57702	76.26664	2677.64063	-33.59649	79.17426	2612.78784	-74.40305	47.39636	2552.55811	-96.20546	42.95709																																																	2500.81763	3.16357	85.01898	2339.93506	-45.20955	156.93346	
121	1.000	2178.56909	23.82514	1659.29578	2075.96875	10.28136	1564.63818	2293.56689	31.57382	1602.73523	2258.82007	228.58255	1372.02295	2412.44775	-27.05697	1228.71118	2402.50757	350.63641	1103.15479	2427.56714	422.24362	853.13593	2250.48706	-176.39648	1356.83459	2198.56030	-240.73502	1025.64868	1988.38977	-168.19864	894.51190	2201.53003	169.78879	895.96796	2242.14917	-115.59434	883.58368	2442.84253	65.22459	886.30609	2033.90039	131.37892	607.29877	2030.63806	183.99364	486.07690	1947.56921	118.19674	265.88742	1936.02063	193.07651	93.78681	2001.79761	139.38466	71.68607	1789.69800	142.59653	46.93899	2242.00366	-77.73915	551.52844	2379.31421	-108.10130	406.12323	2429.13135	-26.01422	273.46063	2636.60205	-54.02959	84.62365	2696.26880	11.66643	84.13528	2506.43701	-70.77125	45.77545	1746.10046	103.39202	37.03362	1791.71973	105.85851	55.45645	1891.64392	94.79939	84.65392	1961.04895	104.42207	73.98121	1966.70374	178.85606	66.54556	1884.52209	191.08472	47.19915	1819.39307	193.76270	37.29799	2458.70850	-49.48260	39.76931	2490.67651	-34.20619	49.78194	2572.90137	20.25245	61.67381	2652.55200	35.38539	73.91475	2678.41553	-32.87858	76.64201	2612.78687	-73.78255	45.93572	2552.87158	-96.28751	42.89008																																																	2338.56982	-44.64112	156.06743	
